<?xml version="1.0" encoding="UTF-8"?>
<svg width="61px" height="50px" viewBox="0 0 61 50" version="1.1" xmlns="http://www.w3.org/2000/svg" xmlns:xlink="http://www.w3.org/1999/xlink">
    <!-- Generator: sketchtool 52.6 (67491) - http://www.bohemiancoding.com/sketch -->
    <title>627824BD-21E0-46FF-86AD-582E58BF18D3</title>
    <desc>Created with sketchtool.</desc>
    <g id="02-HOME" stroke="none" stroke-width="1" fill="none" fill-rule="evenodd">
        <g id="LearnSQL_Home_Cookies_Promo" transform="translate(-517.000000, -735.000000)" fill="#38C591" fill-rule="nonzero">
            <g id="Cookies" transform="translate(240.000000, 328.000000)">
                <path d="M290.942197,424.372491 C290.945711,424.475524 290.938301,424.580649 290.919068,424.68643 C290.707868,425.707229 290.743068,426.763229 291.024668,427.748828 C291.04736,427.828253 291.062332,427.908084 291.070019,427.987579 C291.410279,429.192194 292.0517,430.25609 292.920611,431.130151 C293.035277,431.194427 293.14363,431.275788 293.242265,431.374424 C293.770265,431.937624 293.770265,432.817623 293.207065,433.380822 C292.256666,434.296021 291.587867,435.42242 291.271067,436.689619 C291.232073,436.806602 291.181079,436.915186 291.119858,437.014484 C290.932572,437.857711 290.90913,438.737886 291.04953,439.578662 C291.085214,439.666693 291.112503,439.759913 291.130267,439.857616 C291.235867,440.350416 291.376667,440.843215 291.587867,441.300815 C292.080667,442.392014 292.819866,443.377613 293.805465,444.116812 C293.860599,444.156631 293.911736,444.199649 293.958851,444.245425 C295.254959,445.154972 296.820094,445.591334 298.416661,445.524811 C299.15769,445.491128 299.802024,446.037615 299.887021,446.763316 C299.892729,446.780643 299.898145,446.798136 299.903262,446.815791 C300.297475,448.323732 301.66601,450.37441 302.958251,451.451152 C303.126573,451.52131 303.282512,451.622661 303.415056,451.755205 C303.516046,451.861245 303.619934,451.963663 303.726537,452.062407 C305.072513,453.307821 306.868673,453.970217 308.695051,453.937603 C310.06785,453.585603 311.299848,452.846404 312.250248,451.790405 C312.496647,451.508805 312.883847,451.332805 313.271047,451.332805 L313.306247,451.332805 C313.693446,451.332805 314.045446,451.473605 314.327046,451.755205 C314.503045,451.931205 314.679045,452.107205 314.890245,452.248005 C316.967043,453.972803 319.783041,454.395202 322.247038,453.339203 C324.922236,452.177605 326.647034,449.396807 326.506234,446.47521 C326.471034,446.08801 326.647034,445.665611 326.928634,445.384011 C327.210233,445.102411 327.597433,444.961611 328.019833,444.996811 L328.055033,444.996811 C330.94143,444.996811 333.616628,443.201613 334.672627,440.526416 C335.763825,437.780818 334.989426,434.648021 332.807028,432.676823 C332.525429,432.430423 332.349429,432.043223 332.349429,431.656024 C332.349429,431.268824 332.490229,430.881625 332.771828,430.635225 C334.144627,429.297626 334.954226,427.432028 334.954226,425.49603 C334.954226,424.510431 334.743026,423.595231 334.391027,422.715232 C333.229428,420.040035 330.44863,418.315236 327.527033,418.456036 C327.139834,418.491236 326.717434,418.315236 326.435834,418.033637 C326.154234,417.752037 326.013435,417.364837 326.048635,416.942438 L326.048635,416.872038 C326.048635,413.98564 324.253436,411.310443 321.578239,410.254444 C319.184641,409.304045 316.439044,409.761644 314.432646,411.416043 C314.186246,411.627243 313.939846,411.873643 313.728646,412.120042 C313.63837,412.223215 313.529194,412.312212 313.408043,412.383572 C313.187185,412.538628 312.913875,412.622073 312.602247,412.648042 C312.637447,412.648042 312.602247,412.648042 312.602247,412.648042 C312.215048,412.648042 311.863048,412.507242 311.581448,412.225642 C310.243849,410.852843 308.378251,410.043244 306.442253,410.043244 L306.160653,410.043244 C306.144044,410.044035 306.127488,410.044542 306.11099,410.044768 C304.839121,410.420255 303.673587,411.131277 302.816656,412.120042 C302.592485,412.344213 302.368314,412.497003 302.125959,412.57841 C300.49083,413.722321 299.830372,415.511235 299.6357,417.583362 C299.57919,418.087368 299.261891,418.504306 298.8335,418.708186 C298.590623,418.893587 298.287506,418.998965 297.959061,418.984036 C296.410263,418.948836 294.861464,419.441635 293.594265,420.392034 C293.525077,420.449691 293.448335,420.496015 293.365274,420.532243 C292.420882,421.287531 291.69242,422.277851 291.235867,423.419232 C291.10281,423.711958 291.00999,424.04492 290.942197,424.372491 Z M288.080467,424.485933 C288.075799,424.37857 288.082993,424.268858 288.10307,424.158431 C288.20867,423.560031 288.38467,422.961632 288.63107,422.398433 C289.299869,420.673634 290.461468,419.195236 291.939867,418.068837 C292.020964,418.010266 292.106098,417.961499 292.193867,417.922314 C293.616186,416.938846 295.270813,416.354818 296.98294,416.205193 C297.335435,414.261417 298.111933,412.531562 299.435326,411.199711 C298.2673,410.435555 296.911041,410.043244 295.530263,410.043244 C294.579864,410.043244 293.629465,410.219244 292.749466,410.606444 C289.792669,412.014442 289.194269,415.640039 289.088669,417.681637 C289.053469,418.068837 288.87747,418.420836 288.59587,418.667236 C288.31427,418.913636 287.92707,419.054436 287.539871,419.019236 C284.407074,418.737636 281.450277,420.568034 280.323878,423.489632 C279.232679,426.235229 280.007078,429.368026 282.189476,431.339224 C282.471076,431.585624 282.647076,431.972824 282.647075,432.360023 C282.647075,432.747223 282.506276,433.134422 282.224676,433.380822 C280.112678,435.42242 279.443878,438.625617 280.640677,441.300815 C281.802276,444.011212 284.583074,445.700811 287.504671,445.560011 C287.575071,445.524811 287.575071,445.524811 287.610271,445.524811 C287.96227,445.524811 288.31427,445.665611 288.59587,445.91201 C288.87747,446.19361 289.018269,446.54561 289.018269,446.93281 C288.94787,449.889607 290.778268,452.600004 293.488665,453.656003 C295.728006,454.545153 298.275438,454.201936 300.237429,452.799293 C299.086515,451.575746 298.004385,449.880973 297.438316,448.35608 C295.503639,448.233019 293.602451,447.541867 292.045467,446.33441 C291.959284,446.272167 291.88287,446.202108 291.816313,446.125918 C290.599359,445.134208 289.607253,443.872691 288.98307,442.427214 C288.70147,441.758414 288.49027,441.089615 288.34947,440.385616 C288.06787,438.942417 288.10307,437.393618 288.49027,435.95042 C288.518164,435.852792 288.555881,435.760077 288.602044,435.673165 C288.948817,434.487593 289.52066,433.387082 290.273111,432.41609 C289.334014,431.292233 288.65385,429.968807 288.27907,428.523227 C288.259038,428.453114 288.245023,428.382685 288.236724,428.31245 C287.946643,427.064185 287.878401,425.764445 288.080467,424.485933 Z M305.406783,407.390347 C305.509371,407.335216 305.620357,407.291921 305.738254,407.262447 C307.709452,406.804847 309.71585,406.945647 311.581448,407.684846 C312.24603,407.945932 312.894607,408.287039 313.494805,408.686585 C316.163909,406.938154 319.542728,406.560882 322.528638,407.755246 C325.907835,409.092845 328.266233,412.190442 328.723832,415.745639 C332.279029,416.062438 335.482226,418.315236 336.925424,421.659233 C337.453424,422.891232 337.735024,424.228831 337.735024,425.56643 C337.735024,427.784028 336.995824,429.931226 335.623026,431.691224 C337.911023,434.436821 338.579823,438.273618 337.242224,441.652814 C335.904625,444.996811 332.807028,447.390409 329.251832,447.848009 C328.935032,451.403205 326.682234,454.606402 323.338237,456.049601 C319.99424,457.4928 316.192644,457 313.306247,454.782402 C312.109448,455.768001 310.701449,456.472 309.152651,456.824 C309.082251,456.8592 308.976651,456.8592 308.906251,456.8592 C308.785272,456.864617 308.664386,456.867718 308.543654,456.868537 C308.019187,456.964561 307.49472,457 306.970253,457 C305.738254,457 304.541455,456.7536 303.379856,456.296001 C302.754871,456.050471 302.158194,455.734171 301.589825,455.365051 C299.948188,456.432962 298.016113,457 296.058263,457 C294.826264,457 293.629465,456.7888 292.432666,456.331201 C289.053469,454.993602 286.695072,451.896005 286.237472,448.340808 C282.682275,448.024009 279.479078,445.771211 278.03588,442.427214 C276.592681,439.083217 277.120681,435.211221 279.303079,432.395223 C277.015081,429.649626 276.346281,425.812829 277.68388,422.433633 C279.162279,418.808036 282.611875,416.379238 286.413472,416.168038 C286.941471,412.296042 288.77187,409.374445 291.587867,408.036846 L291.623067,408.036846 C292.855066,407.508847 294.192665,407.227247 295.530263,407.227247 C297.747861,407.227247 299.895059,407.966446 301.655058,409.339245 C302.754649,408.433699 304.032525,407.765866 305.406783,407.390347 Z M324.253436,431.304024 C323.549437,431.304024 322.951037,430.811225 322.845438,430.072025 C322.563838,428.100827 321.191039,426.798428 321.191039,426.763228 C320.62784,426.235229 320.59264,425.35523 321.085439,424.75683 C321.613439,424.193631 322.493438,424.158431 323.091837,424.65123 C323.162237,424.72163 325.239035,426.622429 325.661435,429.649626 C325.767035,430.424025 325.239035,431.128024 324.464636,431.233624 C324.394236,431.304024 324.323836,431.304024 324.253436,431.304024 Z M314.494826,420.619292 C314.350357,421.016218 314.020113,421.382986 313.617323,421.498596 C311.543181,422.242031 308.897811,420.230342 308.390926,419.821097 C307.855085,419.401313 307.784513,418.514069 308.21107,417.882684 C308.637627,417.251298 309.419127,417.086233 309.983924,417.516556 C310.980777,418.29143 312.513159,419.036467 313.038934,418.853243 C313.71665,418.612944 314.392392,419.008731 314.552116,419.741128 C314.612622,420.025363 314.591138,420.354675 314.494826,420.619292 Z M312.215048,433.416022 C312.039048,433.416022 311.898248,433.380822 311.722248,433.345622 C311.511048,433.275222 309.61025,432.536023 308.307851,430.740825 C307.850252,430.107225 307.991052,429.227226 308.624651,428.769627 C309.25825,428.312027 310.13825,428.452827 310.595849,429.086426 C311.370248,430.177625 312.672647,430.670425 312.672647,430.670425 C313.411847,430.952025 313.763846,431.761624 313.482246,432.465623 C313.306247,433.064023 312.778247,433.416022 312.215048,433.416022 Z M301.725457,438.414417 L300.739858,438.414417 C299.965459,438.414417 299.33186,437.780818 299.33186,437.006419 C299.33186,436.23202 299.965459,435.59842 300.739858,435.59842 L301.725457,435.59842 C302.499857,435.59842 303.133456,436.23202 303.133456,437.006419 C303.133456,437.780818 302.499857,438.414417 301.725457,438.414417 Z M321.437439,443.694413 C320.83904,443.694413 320.31104,443.342413 320.09984,442.744013 C319.85344,442.004814 320.24064,441.195215 320.979839,440.948815 L324.605436,439.716816 C325.344635,439.470417 326.154235,439.857616 326.400634,440.596815 C326.647034,441.336015 326.259834,442.145614 325.520635,442.392014 L321.895039,443.624013 C321.754239,443.694413 321.578239,443.694413 321.437439,443.694413 Z M298.888419,428.008138 C298.29002,428.008138 297.76202,427.656138 297.550821,427.057739 C297.304421,426.31854 297.69162,425.50894 298.43082,425.262541 L302.056416,424.030542 C302.795616,423.784142 303.605215,424.171342 303.851615,424.910541 C304.098014,425.64974 303.710815,426.459339 302.971615,426.705739 L299.346019,427.937738 C299.205219,428.008138 299.029219,428.008138 298.888419,428.008138 Z M309.99745,447.355209 C309.53985,447.355209 309.082251,447.249609 308.695051,447.179209 C308.096651,447.038409 307.427852,446.89761 306.477453,446.89761 C305.703054,446.89761 305.069454,446.26401 305.069454,445.489611 C305.069454,444.715212 305.703054,444.081612 306.477453,444.081612 C307.709452,444.081612 308.624651,444.292812 309.29345,444.433612 C309.46945,444.468812 309.68065,444.504012 309.82145,444.539212 C310.279049,444.046412 311.088649,443.940812 311.651848,444.363212 C312.285448,444.820811 312.426247,445.700811 312.003848,446.33441 C311.405448,447.108809 310.666249,447.355209 309.99745,447.355209 Z" id="Combined-Shape"></path>
            </g>
        </g>
    </g>
</svg>